<?xml version="1.0" encoding="UTF-8" standalone="no"?>
<svg
   xmlns:dc="http://purl.org/dc/elements/1.1/"
   xmlns:cc="http://creativecommons.org/ns#"
   xmlns:rdf="http://www.w3.org/1999/02/22-rdf-syntax-ns#"
   xmlns:svg="http://www.w3.org/2000/svg"
   xmlns="http://www.w3.org/2000/svg"
   xmlns:sodipodi="http://sodipodi.sourceforge.net/DTD/sodipodi-0.dtd"
   xmlns:inkscape="http://www.inkscape.org/namespaces/inkscape"
   height="24"
   viewBox="0 0 24 24"
   width="24"
   version="1.1"
   id="svg6"
   sodipodi:docname="cancel-24px.svg"
   inkscape:version="1.0.1 (1.0.1+r75)">
  <metadata
     id="metadata12">
    <rdf:RDF>
      <cc:Work
         rdf:about="">
        <dc:format>image/svg+xml</dc:format>
        <dc:type
           rdf:resource="http://purl.org/dc/dcmitype/StillImage" />
      </cc:Work>
    </rdf:RDF>
  </metadata>
  <defs
     id="defs10" />
  <sodipodi:namedview
     pagecolor="#ffffff"
     bordercolor="#666666"
     borderopacity="1"
     objecttolerance="10"
     gridtolerance="10"
     guidetolerance="10"
     inkscape:pageopacity="0"
     inkscape:pageshadow="2"
     inkscape:window-width="906"
     inkscape:window-height="772"
     id="namedview8"
     showgrid="false"
     inkscape:zoom="25.958333"
     inkscape:cx="12"
     inkscape:cy="11.76886"
     inkscape:window-x="2483"
     inkscape:window-y="64"
     inkscape:window-maximized="0"
     inkscape:current-layer="svg6"
     inkscape:document-rotation="0" />
  <path
     d="M0 0h24v24H0V0z"
     fill="none"
     opacity=".87"
     id="path2" />
  <path
     d="M12 2C6.47 2 2 6.47 2 12s4.47 10 10 10 10-4.47 10-10S17.53 2 12 2zm4.3 14.3c-.39.39-1.02.39-1.41 0L12 13.41 9.11 16.3c-.39.39-1.02.39-1.41 0-.39-.39-.39-1.02 0-1.41L10.59 12 7.7 9.11c-.39-.39-.39-1.02 0-1.41.39-.39 1.02-.39 1.41 0L12 10.59l2.89-2.89c.39-.39 1.02-.39 1.41 0 .39.39.39 1.02 0 1.41L13.41 12l2.89 2.89c.38.38.38 1.02 0 1.41z"
     id="path4" />
  <path
     style="fill:#aa0000;stroke-width:0.0385233"
     d="M 11.340143,21.95863 C 7.3746869,21.672937 3.9880786,19.130271 2.6225577,15.413466 2.0471147,13.847171 1.8820323,12.066481 2.1560002,10.380863 2.8395645,6.1751569 6.1703796,2.8428147 10.376484,2.1566097 c 2.335831,-0.3810793 4.688979,0.062305 6.719992,1.2661912 2.524183,1.496214 4.277441,4.065822 4.747524,6.9580621 0.378522,2.328899 -0.08006,4.752369 -1.272236,6.723471 -0.885159,1.463483 -2.005468,2.583122 -3.472646,3.47057 -1.674402,1.01279 -3.804314,1.52455 -5.758975,1.383726 z M 8.8603531,16.509343 c 0.074157,-0.03745 0.811103,-0.742228 1.6376569,-1.566177 l 1.502826,-1.498088 1.463466,1.466138 c 0.804907,0.806376 1.537833,1.510412 1.628724,1.564524 0.201369,0.119886 0.578134,0.161479 0.801882,0.08853 0.543887,-0.177334 0.831463,-0.757559 0.650931,-1.313348 -0.06285,-0.193498 -0.170297,-0.310848 -1.583876,-1.729883 l -1.516451,-1.522304 1.465921,-1.46325 C 15.71769,9.7306937 16.42391,8.9942215 16.480812,8.8988764 16.570006,8.7494227 16.58427,8.6830313 16.58427,8.4173355 16.58427,8.0700797 16.51799,7.8913448 16.313323,7.6866772 16.108655,7.48201 15.92992,7.4157303 15.582665,7.4157303 c -0.265696,0 -0.332088,0.014264 -0.481541,0.1034578 -0.09535,0.056902 -0.831915,0.7632196 -1.636822,1.5695957 L 12.000836,10.554922 10.49801,9.0568338 C 9.6714561,8.2328853 8.9345104,7.5269802 8.8603531,7.4881556 8.6675784,7.3872297 8.1641324,7.3884497 7.9587775,7.4903399 7.5883454,7.6741356 7.4157303,7.968794 7.4157303,8.4173355 c 0,0.2656958 0.014264,0.3320872 0.1034578,0.4815409 0.056902,0.095345 0.7632196,0.8319147 1.5695957,1.6368216 l 1.4661382,1.463466 -1.4980882,1.502826 c -0.8239485,0.826554 -1.5282141,1.562716 -1.5650346,1.635916 -0.089426,0.177781 -0.1180419,0.567284 -0.055616,0.757002 0.1043472,0.317122 0.3061133,0.527572 0.6326396,0.659871 0.1621545,0.0657 0.6239476,0.03919 0.79153,-0.04544 z"
     id="path14" />
  <path
     style="fill:#c83737;stroke-width:0.0385233"
     d="M 11.046968,21.919077 C 9.0538077,21.690851 7.263811,20.9552 5.7399678,19.738012 5.239848,19.338535 4.4869796,18.562506 4.1005451,18.048154 2.8142476,16.336068 2.1445138,14.474334 2.0564556,12.365971 1.9577156,10.001856 2.7468899,7.6311476 4.2621553,5.7399676 4.5986305,5.3200179 5.320018,4.5986304 5.7399678,4.2621551 9.1724109,1.5119876 13.921275,1.302843 17.547352,3.7421463 c 1.473404,0.9911763 2.594104,2.2757918 3.372875,3.8662002 0.62642,1.2792763 0.912555,2.3528275 1.008814,3.7849665 0.189631,2.821368 -0.867665,5.60887 -2.897262,7.638466 -1.546961,1.546962 -3.46141,2.502022 -5.681718,2.834437 -0.458798,0.06869 -1.879985,0.101309 -2.303093,0.05286 z M 8.7557763,16.562606 C 8.8707178,16.530687 9.1317881,16.29898 9.9885211,15.468509 10.586327,14.889027 11.282031,14.206428 11.53453,13.951621 l 0.459089,-0.463285 1.497302,1.476795 c 0.849663,0.838026 1.55921,1.506982 1.64043,1.546587 0.08617,0.04202 0.258109,0.07546 0.432052,0.08404 0.258844,0.01277 0.31091,0.0027 0.500098,-0.09658 0.362282,-0.19013 0.539374,-0.497802 0.539815,-0.937851 3.93e-4,-0.390827 -0.05973,-0.466636 -1.65099,-2.081734 L 13.494561,12 14.925432,10.549795 C 15.712411,9.7521818 16.40659,9.0270239 16.468053,8.9383329 16.602247,8.7446906 16.639265,8.4259179 16.565721,8.0972874 16.526432,7.9217237 16.482154,7.8479158 16.317119,7.6828805 16.152084,7.5178457 16.078276,7.4735682 15.902712,7.4342787 c -0.32863,-0.073544 -0.647403,-0.036526 -0.841045,0.097668 -0.08869,0.061463 -0.813849,0.7555855 -1.611462,1.5424943 L 12,10.505184 10.536116,9.0652948 C 9.7309791,8.2733553 9.0078129,7.5806132 8.9290798,7.5258674 8.6336563,7.3204513 8.0371928,7.3656183 7.7452468,7.615513 7.491813,7.8324429 7.4199547,8.0089912 7.4176715,8.4203347 c -0.00181,0.326237 0.00571,0.3607677 0.1120426,0.5144818 0.062691,0.090625 0.7593219,0.8187348 1.5480682,1.6180215 l 1.4340847,1.453249 -0.501911,0.497759 c -0.2760514,0.273767 -0.9587305,0.969661 -1.5170649,1.54643 -1.102501,1.138902 -1.0961393,1.129782 -1.0958311,1.570912 2.696e-4,0.394287 0.1981564,0.71319 0.5579961,0.899258 0.1740497,0.09 0.5560265,0.110112 0.8007202,0.04216 z"
     id="path9" />
</svg>
