<?xml version="1.0" encoding="UTF-8" standalone="no"?>
<svg
   xmlns:dc="http://purl.org/dc/elements/1.1/"
   xmlns:cc="http://creativecommons.org/ns#"
   xmlns:rdf="http://www.w3.org/1999/02/22-rdf-syntax-ns#"
   xmlns:svg="http://www.w3.org/2000/svg"
   xmlns="http://www.w3.org/2000/svg"
   xmlns:sodipodi="http://sodipodi.sourceforge.net/DTD/sodipodi-0.dtd"
   xmlns:inkscape="http://www.inkscape.org/namespaces/inkscape"
   height="24"
   viewBox="0 0 24 24"
   width="24"
   version="1.1"
   id="svg4"
   sodipodi:docname="warning-24px.svg"
   inkscape:version="1.0.1 (1.0.1+r75)">
  <metadata
     id="metadata10">
    <rdf:RDF>
      <cc:Work
         rdf:about="">
        <dc:format>image/svg+xml</dc:format>
        <dc:type
           rdf:resource="http://purl.org/dc/dcmitype/StillImage" />
      </cc:Work>
    </rdf:RDF>
  </metadata>
  <defs
     id="defs8" />
  <sodipodi:namedview
     pagecolor="#ffffff"
     bordercolor="#666666"
     borderopacity="1"
     objecttolerance="10"
     gridtolerance="10"
     guidetolerance="10"
     inkscape:pageopacity="0"
     inkscape:pageshadow="2"
     inkscape:window-width="942"
     inkscape:window-height="738"
     id="namedview6"
     showgrid="false"
     inkscape:zoom="25.958333"
     inkscape:cx="11.903692"
     inkscape:cy="11.88443"
     inkscape:window-x="2515"
     inkscape:window-y="221"
     inkscape:window-maximized="0"
     inkscape:current-layer="svg4" />
  <path
     d="M4.47 21h15.06c1.54 0 2.5-1.67 1.73-3L13.73 4.99c-.77-1.33-2.69-1.33-3.46 0L2.74 18c-.77 1.33.19 3 1.73 3zM12 14c-.55 0-1-.45-1-1v-2c0-.55.45-1 1-1s1 .45 1 1v2c0 .55-.45 1-1 1zm1 4h-2v-2h2v2z"
     id="path2" />
  <path
     style="fill:#ff9f00;stroke-width:0.0385233;fill-opacity:1"
     d="M 4.2375602,20.968633 C 3.2934156,20.840792 2.5765174,20.081415 2.4987623,19.126806 c -0.027519,-0.337856 0.055412,-0.712528 0.2308374,-1.042894 0.069988,-0.131804 1.8246561,-3.171881 3.8992623,-6.755727 3.988741,-6.8904814 3.882164,-6.7178724 4.33101,-7.0143597 0.307049,-0.2028226 0.623952,-0.2876173 1.05939,-0.2834637 0.581555,0.00555 1.01325,0.191977 1.41473,0.6109572 0.118089,0.1232367 1.289627,2.1118399 3.941659,6.6906842 2.075495,3.58343 3.828984,6.621187 3.896644,6.750571 0.576004,1.101483 0.0236,2.42017 -1.182407,2.822641 -0.202575,0.0676 -0.55271,0.07089 -7.974318,0.07489 -4.2693421,0.0023 -7.8144464,-0.0029 -7.8780098,-0.01147 z M 13.001605,17.008026 V 15.987159 H 12 10.998395 v 1.020867 1.020866 H 12 13.001605 Z m -0.555416,-3.092915 c 0.198,-0.101013 0.380843,-0.288286 0.478575,-0.490174 0.072,-0.148721 0.07684,-0.238596 0.07684,-1.424937 0,-1.186341 -0.0048,-1.276216 -0.07684,-1.424937 -0.09694,-0.200244 -0.278673,-0.387316 -0.479708,-0.493794 -0.220033,-0.1165383 -0.670616,-0.1166266 -0.888074,-1.92e-4 -0.200268,0.107248 -0.423717,0.340674 -0.498921,0.521198 -0.0884,0.212212 -0.0884,2.583201 0,2.795412 0.103861,0.249314 0.385572,0.497094 0.672027,0.591082 0.158864,0.05213 0.547983,0.01209 0.716101,-0.07368 z"
     id="path835" />
</svg>
